<svg xmlns="http://www.w3.org/2000/svg" width="376" height="80" viewBox="0 0 376 80" shape-rendering="crispEdges">

  <!-- Outer panel background -->
  <rect x="0" y="0" width="376" height="80" fill="#1a1a2e"/>

  <!-- Top highlight border -->
  <rect x="0" y="0" width="376" height="2" fill="#4a4a7a"/>
  <!-- Bottom shadow border -->
  <rect x="0" y="78" width="376" height="2" fill="#0a0a1a"/>

  <!-- Slot 1 -->
  <rect x="8" y="8" width="64" height="64" fill="#0f0f23"/>
  <rect x="8" y="8" width="64" height="2" fill="#5a5a9a"/>
  <rect x="8" y="8" width="2" height="64" fill="#5a5a9a"/>
  <rect x="70" y="8" width="2" height="64" fill="#0a0a1a"/>
  <rect x="8" y="70" width="64" height="2" fill="#0a0a1a"/>
  <text x="40" y="52" font-family="monospace" font-size="10" fill="#3a3a6a" text-anchor="middle" dominant-baseline="middle">1</text>

  <!-- Slot 2 -->
  <rect x="80" y="8" width="64" height="64" fill="#0f0f23"/>
  <rect x="80" y="8" width="64" height="2" fill="#5a5a9a"/>
  <rect x="80" y="8" width="2" height="64" fill="#5a5a9a"/>
  <rect x="142" y="8" width="2" height="64" fill="#0a0a1a"/>
  <rect x="80" y="70" width="64" height="2" fill="#0a0a1a"/>
  <text x="112" y="52" font-family="monospace" font-size="10" fill="#3a3a6a" text-anchor="middle" dominant-baseline="middle">2</text>

  <!-- Slot 3 — highlighted as selected -->
  <rect x="152" y="8" width="64" height="64" fill="#0f0f23"/>
  <rect x="152" y="6" width="64" height="2" fill="#e0c060"/>
  <rect x="150" y="6" width="2" height="68" fill="#e0c060"/>
  <rect x="214" y="6" width="2" height="68" fill="#e0c060"/>
  <rect x="152" y="72" width="64" height="2" fill="#e0c060"/>
  <text x="184" y="52" font-family="monospace" font-size="10" fill="#3a3a6a" text-anchor="middle" dominant-baseline="middle">3</text>

  <!-- Slot 4 -->
  <rect x="224" y="8" width="64" height="64" fill="#0f0f23"/>
  <rect x="224" y="8" width="64" height="2" fill="#5a5a9a"/>
  <rect x="224" y="8" width="2" height="64" fill="#5a5a9a"/>
  <rect x="286" y="8" width="2" height="64" fill="#0a0a1a"/>
  <rect x="224" y="70" width="64" height="2" fill="#0a0a1a"/>
  <text x="256" y="52" font-family="monospace" font-size="10" fill="#3a3a6a" text-anchor="middle" dominant-baseline="middle">4</text>

  <!-- Slot 5 -->
  <rect x="296" y="8" width="64" height="64" fill="#0f0f23"/>
  <rect x="296" y="8" width="64" height="2" fill="#5a5a9a"/>
  <rect x="296" y="8" width="2" height="64" fill="#5a5a9a"/>
  <rect x="358" y="8" width="2" height="64" fill="#0a0a1a"/>
  <rect x="296" y="70" width="64" height="2" fill="#0a0a1a"/>
  <text x="328" y="52" font-family="monospace" font-size="10" fill="#3a3a6a" text-anchor="middle" dominant-baseline="middle">5</text>

</svg>
